<?xml version="1.0" encoding="UTF-8"?>
<svg width="30px" height="30px" viewBox="0 0 30 30" version="1.1" xmlns="http://www.w3.org/2000/svg" xmlns:xlink="http://www.w3.org/1999/xlink">
    <!-- Generator: Sketch 56.3 (81716) - https://sketch.com -->
    <title>icon/评论_详情页</title>
    <desc>Created with Sketch.</desc>
    <g id="icon/评论_详情页" stroke="none" stroke-width="1" fill="none" fill-rule="evenodd">
        <g id="card-pinglun" transform="translate(3.000000, 3.000000)" fill="#282828" fill-rule="nonzero">
            <path d="M5.16497548,1.82844423 C3.26844757,1.82844423 1.72568509,3.46307338 1.72568509,5.47253359 L1.72568509,14.8286827 C1.72568509,16.8381429 3.26844757,18.472772 5.16497548,18.472772 L9.39635533,18.472772 C9.59826048,18.472772 9.79498859,18.5477384 9.95030024,18.6848716 L12.4508179,20.9027745 L15.0704079,18.673901 C15.2239939,18.5422529 15.4138192,18.472772 15.6105473,18.472772 L19.8367502,18.472772 C21.733278,18.472772 23.2743149,16.8381429 23.2743149,14.8286827 L23.2743149,5.47253359 C23.2743149,3.46307338 21.733278,1.82844423 19.8367502,1.82844423 L5.16497548,1.82844423 Z M12.4404638,23 C12.2437357,23 12.0470076,22.9286906 11.8865189,22.786072 L9.08228065,20.3012163 L5.16497548,20.3012163 C2.31759508,20.3012163 0,17.8456158 0,14.8286827 L0,5.47253359 C0,2.45560061 2.31759508,0 5.16497548,0 L19.8367502,0 C22.6841306,0 25,2.45560061 25,5.47253359 L25,14.8286827 C25,17.8456158 22.6841306,20.3012163 19.8367502,20.3012163 L15.9142679,20.3012163 L12.9806033,22.7988712 C12.8235659,22.9323476 12.6320149,23 12.4404638,23 Z M7.52768123,10.006831 C7.52768123,10.834831 6.85568123,11.506831 6.02768123,11.506831 C5.19968123,11.506831 4.52768123,10.834831 4.52768123,10.006831 C4.52768123,9.178831 5.19968123,8.506831 6.02768123,8.506831 C6.85568123,8.506831 7.52768123,9.178831 7.52768123,10.006831 Z M13.7496879,10.006831 C13.7496879,10.834831 13.0776879,11.506831 12.2496879,11.506831 C11.4216879,11.506831 10.7496879,10.834831 10.7496879,10.006831 C10.7496879,9.178831 11.4216879,8.506831 12.2496879,8.506831 C13.0776879,8.506831 13.7496879,9.178831 13.7496879,10.006831 Z M20.1107889,10.006831 C20.1107889,10.834831 19.4387889,11.506831 18.6107889,11.506831 C17.7827889,11.506831 17.1107889,10.834831 17.1107889,10.006831 C17.1107889,9.178831 17.7827889,8.506831 18.6107889,8.506831 C19.4387889,8.506831 20.1107889,9.178831 20.1107889,10.006831 Z" id="形状"></path>
        </g>
    </g>
</svg>