<?xml version="1.0" encoding="UTF-8"?>
<svg width="30px" height="30px" viewBox="0 0 30 30" version="1.1" xmlns="http://www.w3.org/2000/svg" xmlns:xlink="http://www.w3.org/1999/xlink">
    <!-- Generator: Sketch 56.3 (81716) - https://sketch.com -->
    <title>icon/收藏_详情页</title>
    <desc>Created with Sketch.</desc>
    <g id="icon/收藏_详情页" stroke="none" stroke-width="1" fill="none" fill-rule="evenodd">
        <g id="shoucangqian_new" stroke="#282828" stroke-width="1.7">
            <path d="M14.4415906,22.7935732 L8.33538789,26.0037939 C7.74877436,26.3121949 7.02322174,26.0866591 6.71482076,25.5000456 C6.59201387,25.266453 6.54963626,24.9988913 6.59424847,24.7387821 L7.76042943,17.9394254 C7.82719495,17.5501525 7.69813677,17.1529523 7.41531345,16.8772677 L2.47529167,12.0619365 C2.00071135,11.5993351 1.99100059,10.8395991 2.45360206,10.3650188 C2.63781239,10.1760384 2.87918329,10.0530538 3.14034774,10.0151044 L9.96728995,9.02309164 C10.3581422,8.96629749 10.6960209,8.72081424 10.8708153,8.36664205 L13.9239167,2.18038299 C14.2172234,1.58607857 14.9367745,1.34207176 15.5310789,1.63537853 C15.767734,1.75217482 15.959287,1.94372785 16.0760833,2.18038299 L19.1291847,8.36664205 C19.3039791,8.72081424 19.6418578,8.96629749 20.0327101,9.02309164 L26.8596523,10.0151044 C27.5155061,10.1104056 27.9699239,10.719337 27.8746227,11.3751909 C27.8366733,11.6363553 27.7136887,11.8777262 27.5247083,12.0619365 L22.5846865,16.8772677 C22.3018632,17.1529523 22.172805,17.5501525 22.2395706,17.9394254 L23.4057515,24.7387821 C23.5177847,25.3919859 23.0790793,26.012333 22.4258756,26.1243662 C22.1657664,26.1689784 21.8982047,26.1266008 21.6646121,26.0037939 L15.5584094,22.7935732 C15.2088205,22.6097835 14.7911795,22.6097835 14.4415906,22.7935732 Z" id="星形"></path>
        </g>
    </g>
</svg>